<svg xmlns="http://www.w3.org/2000/svg" width="37.011" height="37.011" viewBox="0 0 37.011 37.011"><defs><style>.a{fill:#022e64;}</style></defs><g transform="translate(0)"><path class="a" d="M19.667,37.011H17.344A3.411,3.411,0,0,1,13.937,33.6v-.786a14.941,14.941,0,0,1-2.32-.963l-.557.557a3.407,3.407,0,0,1-4.819,0L4.6,30.77a3.407,3.407,0,0,1,0-4.819l.556-.556a14.943,14.943,0,0,1-.963-2.32H3.407A3.411,3.411,0,0,1,0,19.667V17.344a3.411,3.411,0,0,1,3.407-3.407h.786a14.946,14.946,0,0,1,.963-2.32L4.6,11.06a3.407,3.407,0,0,1,0-4.819L6.241,4.6a3.407,3.407,0,0,1,4.819,0l.556.556a14.956,14.956,0,0,1,2.32-.963V3.407A3.411,3.411,0,0,1,17.344,0h2.323a3.411,3.411,0,0,1,3.407,3.407v.786a14.942,14.942,0,0,1,2.32.963l.557-.557a3.407,3.407,0,0,1,4.819,0l1.642,1.642a3.407,3.407,0,0,1,0,4.819l-.556.556a14.942,14.942,0,0,1,.963,2.32H33.6a3.411,3.411,0,0,1,3.407,3.407v2.323A3.411,3.411,0,0,1,33.6,23.074h-.786a14.945,14.945,0,0,1-.963,2.32l.557.557a3.407,3.407,0,0,1,0,4.819L30.77,32.412a3.407,3.407,0,0,1-4.819,0l-.556-.556a14.955,14.955,0,0,1-2.32.963V33.6A3.411,3.411,0,0,1,19.667,37.011Zm-7.688-7.433a12.781,12.781,0,0,0,3.313,1.375A1.084,1.084,0,0,1,16.106,32v1.6a1.24,1.24,0,0,0,1.239,1.238h2.323A1.24,1.24,0,0,0,20.905,33.6V32a1.084,1.084,0,0,1,.813-1.05,12.781,12.781,0,0,0,3.313-1.375,1.084,1.084,0,0,1,1.319.167l1.134,1.134a1.238,1.238,0,0,0,1.751,0l1.643-1.643a1.238,1.238,0,0,0,0-1.751L29.744,26.35a1.084,1.084,0,0,1-.167-1.319,12.779,12.779,0,0,0,1.375-3.313A1.084,1.084,0,0,1,32,20.905h1.6a1.24,1.24,0,0,0,1.239-1.238V17.344A1.24,1.24,0,0,0,33.6,16.106H32a1.084,1.084,0,0,1-1.05-.813,12.781,12.781,0,0,0-1.375-3.313,1.084,1.084,0,0,1,.167-1.319l1.134-1.134a1.238,1.238,0,0,0,0-1.751L29.236,6.133a1.238,1.238,0,0,0-1.751,0L26.351,7.267a1.084,1.084,0,0,1-1.319.167,12.781,12.781,0,0,0-3.313-1.375,1.084,1.084,0,0,1-.813-1.05v-1.6a1.24,1.24,0,0,0-1.239-1.238H17.344a1.24,1.24,0,0,0-1.239,1.238v1.6a1.084,1.084,0,0,1-.813,1.05,12.781,12.781,0,0,0-3.313,1.375,1.084,1.084,0,0,1-1.319-.167L9.527,6.133a1.238,1.238,0,0,0-1.751,0L6.133,7.775a1.238,1.238,0,0,0,0,1.751l1.135,1.135a1.084,1.084,0,0,1,.167,1.319,12.779,12.779,0,0,0-1.375,3.313,1.084,1.084,0,0,1-1.05.813h-1.6a1.24,1.24,0,0,0-1.239,1.239v2.323a1.24,1.24,0,0,0,1.239,1.238h1.6a1.084,1.084,0,0,1,1.05.813,12.781,12.781,0,0,0,1.375,3.313,1.084,1.084,0,0,1-.167,1.319L6.132,27.484a1.238,1.238,0,0,0,0,1.751l1.643,1.643a1.238,1.238,0,0,0,1.751,0l1.134-1.135a1.089,1.089,0,0,1,1.319-.167Z" transform="translate(0 0)"/><path class="a" d="M152.653,160.706a8.053,8.053,0,1,1,8.053-8.053A8.062,8.062,0,0,1,152.653,160.706Zm0-13.937a5.884,5.884,0,1,0,5.884,5.884A5.891,5.891,0,0,0,152.653,146.769Z" transform="translate(-134.147 -134.147)"/></g></svg>